<svg width="22" height="21" viewBox="0 0 22 21" fill="none" xmlns="http://www.w3.org/2000/svg">
<path fill-rule="evenodd" clip-rule="evenodd" d="M8.20293 13.5879C12.0865 13.5879 15.4059 14.1763 15.4059 16.5271C15.4059 18.8779 12.1086 19.4833 8.20293 19.4833C4.31828 19.4833 1 18.9 1 16.5482C1 14.1964 4.29617 13.5879 8.20293 13.5879Z" stroke="#695CD4" stroke-width="1.57913" stroke-linecap="round" stroke-linejoin="round"/>
<path fill-rule="evenodd" clip-rule="evenodd" d="M8.203 10.2326C5.65324 10.2326 3.58563 8.16608 3.58563 5.61632C3.58563 3.06655 5.65324 1 8.203 1C10.7517 1 12.8193 3.06655 12.8193 5.61632C12.8288 8.15661 10.7759 10.2232 8.23564 10.2326H8.203Z" stroke="#695CD4" stroke-width="1.57913" stroke-linecap="round" stroke-linejoin="round"/>
<path d="M15.4579 9.03429C17.1433 8.79742 18.4414 7.35094 18.4445 5.60021C18.4445 3.87475 17.1865 2.44301 15.5368 2.17245" stroke="#695CD4" stroke-width="1.57913" stroke-linecap="round" stroke-linejoin="round"/>
<path d="M17.6816 13.0882C19.3144 13.3314 20.4545 13.9041 20.4545 15.0832C20.4545 15.8949 19.9176 16.4212 19.0502 16.7507" stroke="#695CD4" stroke-width="1.57913" stroke-linecap="round" stroke-linejoin="round"/>
</svg>
