<svg width="22" height="23" viewBox="0 0 22 23" fill="none" xmlns="http://www.w3.org/2000/svg">
<path fill-rule="evenodd" clip-rule="evenodd" d="M5.34908 1.13287C5.21763 1.26432 5.21631 1.27086 5.21631 1.79147V2.3173L4.183 2.31807C2.99748 2.31898 2.69797 2.36377 2.22932 2.61004C1.7331 2.8708 1.34258 3.31106 1.11552 3.86569L1.01491 4.11141L1.00274 10.7882C0.994202 15.4793 1.00533 17.5361 1.04017 17.7041C1.16489 18.3057 1.65484 18.9551 2.20566 19.2486C2.74775 19.5376 2.61204 19.5303 7.46813 19.531L11.8775 19.5317L12.0862 19.9518C13.5977 22.9946 17.6475 23.716 20.1381 21.3861C20.7603 20.8041 21.3063 19.9019 21.5438 19.0636C22.2078 16.7193 21.1094 14.2224 18.9333 13.1296C18.6036 12.9641 18.0213 12.7559 17.7183 12.6954L17.5707 12.666V8.47642C17.5707 4.77442 17.5623 4.25817 17.4983 4.0402C17.3273 3.45809 16.941 2.95801 16.4318 2.65959C15.9408 2.37181 15.8103 2.34923 14.5162 2.32829L13.3466 2.3094V1.78752C13.3466 1.27127 13.3451 1.26423 13.2138 1.13287C13.1157 1.03472 13.0379 1.00011 12.9156 1.00011C12.5377 1.00011 12.4382 1.17484 12.4382 1.83812V2.3173H9.28146H6.12473V1.83812C6.12473 1.17484 6.02516 1.00011 5.64731 1.00011C5.52499 1.00011 5.44723 1.03472 5.34908 1.13287ZM5.21631 3.79697C5.21631 4.31758 5.21763 4.32412 5.34908 4.45557C5.53603 4.64252 5.80501 4.64252 5.99196 4.45557C6.12341 4.32412 6.12473 4.31758 6.12473 3.79697V3.27113H9.28146H12.4382V3.72239C12.4382 3.97057 12.4574 4.2241 12.4808 4.28578C12.6025 4.60582 12.9594 4.68953 13.2178 4.45861C13.3625 4.32934 13.363 4.32725 13.3832 3.80001L13.4035 3.27113H14.4634C15.4226 3.27113 15.5472 3.28004 15.7736 3.36475C16.0765 3.47807 16.3753 3.75604 16.5282 4.06672C16.63 4.27361 16.6409 4.35669 16.6548 5.03118L16.6701 5.76926H9.27996H1.88976L1.90861 5.05389C1.92596 4.39461 1.93686 4.31894 2.04755 4.0887C2.18336 3.80614 2.26234 3.70781 2.49521 3.5313C2.80466 3.29671 2.92376 3.27781 4.11487 3.27431L5.21631 3.27113V3.79697ZM16.6623 9.63001V12.5823L16.4465 12.5825C16.116 12.5827 15.4583 12.7094 15.0044 12.8603C13.0083 13.5241 11.5792 15.4748 11.5644 17.5559C11.5624 17.8307 11.5764 18.184 11.5954 18.3409L11.6299 18.6264L7.32165 18.6135L3.01342 18.6006L2.7597 18.4816C2.43717 18.3303 2.19358 18.0867 2.04233 17.7642L1.92332 17.5105L1.91088 12.1524C1.90402 9.20542 1.90852 6.76806 1.92083 6.736C1.9389 6.68885 3.35412 6.67768 9.30276 6.67768H16.6623V9.63001ZM5.05734 10.7176C4.73077 10.8513 4.68558 11.3227 4.98017 11.5226C5.09654 11.6016 5.29158 11.6058 8.82725 11.6058C12.3629 11.6058 12.558 11.6016 12.6743 11.5226C12.7418 11.4769 12.82 11.3694 12.8483 11.2839C12.8911 11.1542 12.8858 11.1001 12.8165 10.9587C12.7708 10.8653 12.6823 10.7635 12.6199 10.7325C12.5321 10.6888 11.6722 10.6765 8.82725 10.6782C6.80376 10.6795 5.10731 10.6972 5.05734 10.7176ZM17.101 13.5393C18.1767 13.6592 19.2073 14.2139 19.8542 15.0209C20.1793 15.4266 20.2921 15.6146 20.4893 16.0797C21.0217 17.3359 20.8761 18.8397 20.1113 19.983C19.5484 20.8245 18.6791 21.4464 17.6843 21.7192C17.1617 21.8625 16.1186 21.8627 15.5949 21.7196C14.1804 21.3329 13.07 20.2464 12.6372 18.8254C12.5253 18.4582 12.513 18.3486 12.5103 17.6922C12.5076 17.0679 12.5216 16.9156 12.6093 16.6117C13.1346 14.7917 14.6376 13.6072 16.5619 13.4967C16.6191 13.4934 16.8616 13.5126 17.101 13.5393ZM5.08005 13.7318C4.96668 13.7705 4.89669 13.8359 4.8361 13.96C4.72486 14.1878 4.7766 14.3821 4.98603 14.5233L5.13892 14.6263H7.3623C9.27528 14.6263 9.60635 14.6165 9.73384 14.556C10.1148 14.3752 10.0487 13.8355 9.63142 13.7197C9.3817 13.6503 5.28699 13.6612 5.08005 13.7318Z" fill="#1C1244" stroke="#1C1244" stroke-width="0.3"/>
</svg>
