<svg width="16" height="16" viewBox="0 0 16 16" fill="none" xmlns="http://www.w3.org/2000/svg">
<path d="M5.36298 0.429084C3.4386 1.10522 1.77428 2.5615 0.838093 4.38186C0.526032 5.00598 0.265981 5.68211 0.161961 6.41025C-0.20211 8.12659 0.0579407 9.99895 0.838093 11.5593C1.35819 12.5995 2.08634 13.4836 3.02252 14.2118C3.85468 14.8879 4.84287 15.408 5.93509 15.6681C7.28735 16.0321 8.69163 16.0321 9.99188 15.7201C11.1881 15.46 12.3323 14.8879 13.2685 14.0037C14.2567 13.1196 14.9328 11.9753 15.2969 10.6751C15.713 9.32282 15.765 7.86654 15.505 6.46226C13.0085 6.46226 10.512 6.46226 8.01549 6.46226C8.01549 7.50246 8.01549 8.54267 8.01549 9.58287C9.47178 9.58287 10.9281 9.58287 12.3323 9.58287C12.1763 10.5711 11.5522 11.5072 10.72 12.0273C10.1999 12.3914 9.5758 12.5995 8.95168 12.7035C8.32756 12.8075 7.65142 12.8075 7.0273 12.7035C6.40318 12.5995 5.77906 12.2874 5.25896 11.9233C4.42679 11.3512 3.75066 10.467 3.4386 9.47885C3.07453 8.49066 3.07453 7.39844 3.4386 6.35824C3.69865 5.68211 4.06272 5.00598 4.58282 4.48588C5.20695 3.80974 6.03911 3.34165 6.97529 3.18562C7.75544 3.02959 8.5356 3.02959 9.31575 3.28964C9.93987 3.49768 10.564 3.86175 11.0321 4.27783C11.5002 3.80974 12.0203 3.28964 12.4884 2.82155C12.7484 2.5615 13.0085 2.30145 13.2685 2.0414C12.5404 1.36527 11.6562 0.793155 10.72 0.429084C9.00369 -0.143028 7.07931 -0.143028 5.36298 0.429084Z" fill="#A29EB5"/>
<path d="M5.36296 0.429142C7.07929 -0.14297 9.00367 -0.142969 10.72 0.481153C11.6562 0.845224 12.5404 1.36533 13.2685 2.09347C13.0085 2.35352 12.7484 2.61357 12.4883 2.87362C12.0203 3.34171 11.5002 3.86181 11.0321 4.3299C10.564 3.86181 9.93985 3.49774 9.31573 3.34171C8.58759 3.13367 7.75542 3.08166 6.97527 3.23769C6.0911 3.44573 5.25894 3.91382 4.5828 4.53794C4.0627 5.05805 3.64662 5.73418 3.43858 6.41031C2.55441 5.73418 1.72225 5.05805 0.838074 4.38191C1.77426 2.56156 3.43858 1.10527 5.36296 0.429142Z" fill="#A29EB5"/>
<path d="M0.161961 6.41023C0.317991 5.7341 0.526032 5.05797 0.838093 4.38184C1.72227 5.05797 2.55443 5.7341 3.4386 6.41023C3.07453 7.39842 3.07453 8.49064 3.4386 9.53084C2.55443 10.207 1.72227 10.8831 0.838093 11.5592C0.0579407 9.94692 -0.20211 8.12657 0.161961 6.41023Z" fill="#A29EB5"/>
<path d="M7.96349 6.46216C10.46 6.46216 12.9565 6.46216 15.4529 6.46216C15.713 7.86643 15.661 9.32272 15.2449 10.675C14.8808 11.9232 14.2047 13.0674 13.2165 14.0036C12.3843 13.3275 11.5522 12.7034 10.668 12.0272C11.5002 11.4551 12.0723 10.571 12.2803 9.58277C10.824 9.58277 9.36776 9.58277 7.96349 9.58277C7.96349 8.54256 7.96349 7.50236 7.96349 6.46216Z" fill="#A29EB5"/>
<path d="M0.838074 11.5592C1.72225 10.883 2.55441 10.2069 3.43858 9.53076C3.75064 10.519 4.42677 11.4031 5.25894 11.9752C5.77904 12.3393 6.40316 12.5994 7.02728 12.7554C7.6514 12.8594 8.27553 12.8594 8.95166 12.7554C9.57578 12.6514 10.1999 12.3913 10.72 12.0793C11.5522 12.7554 12.3843 13.3795 13.2685 14.0556C12.3323 14.8878 11.2401 15.4599 9.99186 15.772C8.6396 16.084 7.23532 16.084 5.93507 15.72C4.89487 15.4599 3.90667 14.9398 3.0225 14.2637C2.13833 13.4835 1.35818 12.5474 0.838074 11.5592Z" fill="#A29EB5"/>
</svg>
