<svg width="18" height="15" viewBox="0 0 18 15" fill="none" xmlns="http://www.w3.org/2000/svg">
<path fill-rule="evenodd" clip-rule="evenodd" d="M5.16731 0.494631C3.0846 0.697818 1.40099 2.2194 0.95086 4.30519C0.877562 4.64484 0.868688 5.79492 0.93698 6.10134C1.02754 6.50758 1.20514 7.09498 1.31511 7.35183C1.37791 7.49856 1.42926 7.62458 1.42926 7.63196C1.42926 7.6393 1.29619 7.64532 1.1335 7.64532C0.778747 7.64532 0.646225 7.69609 0.567369 7.86225C0.494266 8.01632 0.526023 8.17056 0.652759 8.27721C0.71662 8.33095 0.797406 8.36042 0.880872 8.36042H2.8767C4.44817 8.36042 5.0238 8.35038 5.08647 8.3218C5.14485 8.29522 5.27064 8.11748 5.4907 7.7506L5.64409 7.49489C5.72083 7.36697 5.90501 7.36356 5.98643 7.48854C6.08336 7.63735 6.37993 8.09551 6.64546 8.50669C6.91103 8.91788 7.16502 9.29434 7.20991 9.3433C7.36934 9.51713 7.67479 9.48307 7.77848 9.27991C7.80393 9.23005 8.11325 8.40674 8.46586 7.45029C8.81844 6.49383 9.11751 5.69997 9.13038 5.68619C9.14329 5.67238 9.35593 6.20627 9.6029 6.87261C9.84988 7.53893 10.0718 8.12346 10.0961 8.17153C10.1931 8.36393 10.1653 8.36042 11.5975 8.36042H12.7536C12.8537 8.36042 12.9497 8.32067 13.0205 8.2499C13.1478 8.12252 13.1685 7.96045 13.0756 7.8185C12.9682 7.65474 12.8955 7.64532 11.7388 7.64532C11.096 7.64532 10.5208 7.24573 10.2966 6.64327L10.1886 6.35325C9.47883 4.4462 9.45637 4.39029 9.36724 4.3077C9.30854 4.25328 9.24724 4.23232 9.1469 4.23232C8.87246 4.23232 8.89583 4.18525 8.10713 6.32582C7.71483 7.39048 7.38504 8.26186 7.37425 8.26222C7.36343 8.26261 7.06494 7.81561 6.71093 7.26894C6.35692 6.72225 6.03333 6.25271 5.99186 6.22554C5.88693 6.15679 5.69606 6.16349 5.59384 6.23949C5.54696 6.27436 5.3273 6.6051 5.10571 6.97448C4.85602 7.3907 4.405 7.64402 3.91964 7.64064L3.48048 7.63758L2.6028 7.63146C2.39144 7.62999 2.19891 7.50963 2.10501 7.32027C1.688 6.47921 1.50984 5.45567 1.63668 4.6291C1.7677 3.77517 2.15132 3.02207 2.77659 2.39135C3.91864 1.23931 5.61799 0.893107 7.1501 1.50036C7.62798 1.68977 8.04326 1.97327 8.51562 2.43253C8.99653 2.90011 9.04272 2.90031 9.50412 2.43643C9.68638 2.25317 9.94437 2.0283 10.0774 1.93667C10.7751 1.45622 11.5581 1.2097 12.3872 1.20947C14.3506 1.20895 16.0026 2.58218 16.3685 4.51894C16.4311 4.85059 16.439 5.54596 16.3837 5.85755C16.3247 6.18969 16.1296 6.87147 16.0191 7.13184C15.4933 8.37069 14.0675 9.96833 11.9608 11.6792C11.2877 12.2259 10.0025 13.1699 9.28927 13.6416C9.11843 13.7545 8.89625 13.753 8.72697 13.6377L8.49823 13.4819C6.82824 12.3446 5.46638 11.2496 4.28968 10.0982C3.9947 9.80955 3.71718 9.54912 3.67297 9.51947C3.56418 9.4465 3.39297 9.4516 3.28125 9.53114C3.1735 9.60789 3.10407 9.78975 3.13521 9.91382C3.17951 10.0902 4.46027 11.3058 5.49236 12.151C6.27315 12.7903 7.21283 13.4891 8.14149 14.1208C8.83049 14.5896 8.93669 14.6464 9.0694 14.6173C9.18002 14.5929 9.8948 14.1287 10.6101 13.6165C14.0096 11.1826 16.157 8.93689 16.7902 7.15342C16.9168 6.79694 17.088 6.08961 17.1308 5.74655C17.2622 4.69219 16.9656 3.50353 16.336 2.56089C16.0982 2.20483 15.5932 1.67478 15.2507 1.42176C13.8055 0.353983 11.8959 0.17732 10.3031 0.964097C9.87237 1.17681 9.37908 1.51697 9.15119 1.75835C9.09869 1.81397 9.04178 1.85947 9.02478 1.85947C9.00774 1.85947 8.90444 1.78166 8.79519 1.68658C7.98596 0.982137 7.06773 0.587822 6.02335 0.496191C5.60359 0.459363 5.53029 0.459233 5.16731 0.494631Z" fill="#0BB6A6"/>
</svg>
