<svg width="18" height="19" viewBox="0 0 18 19" fill="none" xmlns="http://www.w3.org/2000/svg">
<path d="M5.14511 17.5806H2.65804C2.2183 17.5806 1.79657 17.4059 1.48563 17.0949C1.17469 16.784 1 16.3622 1 15.9225V10.1194C1 9.67961 1.17469 9.25788 1.48563 8.94694C1.79657 8.63599 2.2183 8.46131 2.65804 8.46131H5.14511M10.9483 6.80326V3.48717C10.9483 2.82756 10.6862 2.19497 10.2198 1.72855C9.75341 1.26214 9.12081 1.00011 8.4612 1.00011L5.14511 8.46131V17.5806H14.4965C14.8963 17.5851 15.2844 17.4449 15.5891 17.1859C15.8937 16.927 16.0946 16.5666 16.1545 16.1712L17.2986 8.71001C17.3346 8.47238 17.3186 8.22975 17.2516 7.99892C17.1846 7.7681 17.0682 7.5546 16.9105 7.37323C16.7528 7.19185 16.5575 7.04694 16.3382 6.94852C16.1189 6.85011 15.8809 6.80054 15.6405 6.80326H10.9483Z" stroke="#1C1244" stroke-width="1.24353" stroke-linecap="round" stroke-linejoin="round"/>
</svg>
