<svg width="23" height="23" viewBox="0 0 23 23" fill="none" xmlns="http://www.w3.org/2000/svg">
<path fill-rule="evenodd" clip-rule="evenodd" d="M20.5432 19.1754H14.203C14.203 19.848 13.9358 20.4931 13.4602 20.9687C12.9846 21.4443 12.3395 21.7115 11.6669 21.7115C10.9943 21.7115 10.3492 21.4443 9.87361 20.9687C9.39801 20.4931 9.13081 19.848 9.13081 19.1754H2.79061C2.53055 19.1687 2.27948 19.0789 2.07413 18.9191C1.86878 18.7594 1.71994 18.5382 1.64937 18.2878C1.57453 18.0431 1.57054 17.7822 1.63787 17.5354C1.70519 17.2885 1.84108 17.0658 2.02978 16.893C2.65784 16.4187 3.16776 15.8057 3.51971 15.1018C3.87166 14.3979 4.05611 13.6222 4.05865 12.8352V9.0311C4.05865 7.01327 4.86023 5.07808 6.28705 3.65126C7.71388 2.22443 9.64906 1.42285 11.6669 1.42285C13.6847 1.42285 15.6199 2.22443 17.0467 3.65126C18.4736 5.07808 19.2751 7.01327 19.2751 9.0311V12.8352C19.2777 13.6222 19.4621 14.3979 19.8141 15.1018C20.166 15.8057 20.676 16.4187 21.304 16.893C21.5103 17.0526 21.659 17.2751 21.7277 17.5267C21.7963 17.7784 21.7811 18.0455 21.6844 18.2878C21.6139 18.5382 21.465 18.7594 21.2597 18.9191C21.0543 19.0789 20.8032 19.1687 20.5432 19.1754V19.1754Z" stroke="#1C1244" stroke-width="1.52165"/>
</svg>
