<svg width="7" height="7" viewBox="0 0 7 7" fill="none" xmlns="http://www.w3.org/2000/svg">
<path fill-rule="evenodd" clip-rule="evenodd" d="M3.52265 2.08936C3.52265 2.29167 3.68665 2.45567 3.88896 2.45567C4.09126 2.45567 4.25527 2.29167 4.25527 2.08936V0.624124C4.25527 0.421817 4.09126 0.257812 3.88896 0.257812C3.68665 0.257812 3.52265 0.421817 3.52265 0.624124V2.08936ZM1.32475 2.82206C1.12244 2.82206 0.958435 2.98606 0.958435 3.18836C0.958435 3.39067 1.12244 3.55467 1.32475 3.55467H2.78999C2.99229 3.55467 3.1563 3.39067 3.1563 3.18836C3.1563 2.98606 2.99229 2.82206 2.78999 2.82206H1.32475ZM3.52265 5.75253C3.52265 5.95484 3.68665 6.11884 3.88896 6.11884C4.09126 6.11884 4.25527 5.95484 4.25527 5.75253V4.28729C4.25527 4.08499 4.09126 3.92098 3.88896 3.92098C3.68665 3.92098 3.52265 4.08499 3.52265 4.28729V5.75253ZM4.6217 3.18836C4.6217 2.98606 4.7857 2.82206 4.98801 2.82206H6.45325C6.65556 2.82206 6.81956 2.98606 6.81956 3.18836C6.81956 3.39067 6.65556 3.55467 6.45325 3.55467H4.98801C4.7857 3.55467 4.6217 3.39067 4.6217 3.18836Z" fill="#0BB6A6"/>
</svg>
