<svg width="13" height="16" viewBox="0 0 13 16" fill="none" xmlns="http://www.w3.org/2000/svg">
<path fill-rule="evenodd" clip-rule="evenodd" d="M2.65446 0.999142C2.46868 1.07962 2.39192 1.18476 2.33664 1.43451C2.32674 1.4792 2.28715 1.51102 2.24138 1.51107L1.7293 1.5116C1.21287 1.51213 1.12455 1.51872 1.02443 1.56419C0.868567 1.63499 0.769707 1.77333 0.732527 1.97269C0.685224 2.2265 0.71751 4.81413 0.772043 5.14001C0.920875 6.02922 1.28881 6.75759 1.91473 7.402C2.45992 7.96334 3.09754 8.33133 3.87521 8.53345C4.02068 8.57124 4.17468 8.60219 4.21745 8.60219C4.26038 8.60219 4.29519 8.63698 4.29521 8.67991L4.29581 10.0274C4.29648 11.5575 4.31737 12.0009 4.40658 12.3794C4.75226 13.846 5.97045 14.9503 7.46536 15.1523C7.93146 15.2153 8.34011 15.1962 8.78627 15.0907C10.0869 14.783 11.1449 13.7378 11.4681 12.4413C11.5642 12.0562 11.581 11.7856 11.581 10.6322V9.62404C11.581 9.55104 11.6292 9.48677 11.6992 9.46623C11.857 9.41999 12.1209 9.27026 12.2825 9.13522C13.0831 8.46645 13.2095 7.27919 12.566 6.47272C12.3192 6.1634 12.0219 5.95464 11.6506 5.83C11.4546 5.76421 11.3851 5.75531 11.0666 5.75531C10.7494 5.75531 10.6778 5.76437 10.4826 5.82931C10.1827 5.92908 9.94019 6.07675 9.718 6.29482C8.9881 7.01117 8.94948 8.14841 9.62834 8.93536C9.78507 9.11704 10.0596 9.31034 10.3243 9.42541C10.4544 9.48194 10.5389 9.60977 10.5401 9.75157L10.546 10.4994C10.5571 11.892 10.5231 12.1646 10.2735 12.68C9.98043 13.2854 9.52039 13.712 8.87915 13.9729C8.58788 14.0915 8.30215 14.1416 7.9242 14.1404C7.22804 14.1382 6.60274 13.8792 6.12354 13.3945C5.79412 13.0612 5.58563 12.7114 5.44311 12.253C5.39278 12.091 5.36674 11.9226 5.36583 11.753L5.35816 10.3213L5.34984 8.76852C5.34943 8.6915 5.40627 8.62614 5.4826 8.61587C5.68138 8.58915 6.11967 8.47521 6.33383 8.3946C7.59503 7.91988 8.57109 6.83392 8.89656 5.54324C9.01822 5.06084 9.02598 4.9181 9.01714 3.33026L9.00948 1.95864C9.009 1.87283 8.98059 1.78952 8.92854 1.7213C8.78271 1.53015 8.70371 1.51229 8.00068 1.5116L7.45841 1.51106C7.41606 1.51102 7.38166 1.47686 7.38132 1.43451C7.38024 1.29872 7.28266 1.13037 7.15674 1.04703C7.05919 0.982485 7.00835 0.968719 6.86747 0.968719C6.67126 0.968719 6.54748 1.03488 6.43394 1.20048C6.36817 1.29636 6.36675 1.31107 6.3586 1.99085C6.35062 2.65387 6.35285 2.68888 6.41063 2.8082C6.49005 2.9723 6.64392 3.07406 6.8368 3.09005C7.11311 3.11296 7.33271 2.93565 7.38038 2.65114C7.38984 2.59462 7.43803 2.55272 7.49532 2.55121L7.69703 2.54589C7.86118 2.54157 7.99619 2.67424 7.99473 2.83844L7.9866 3.75556C7.97643 4.90264 7.97223 4.98684 7.9143 5.20954C7.71522 5.97486 7.32498 6.56212 6.71444 7.01521C6.33652 7.29563 5.84845 7.50455 5.39901 7.57825C5.1422 7.62035 4.61611 7.62035 4.3593 7.57825C3.20544 7.38907 2.21147 6.49863 1.88595 5.36248C1.77763 4.9844 1.76467 4.80245 1.76462 3.6592L1.7646 2.81747C1.76459 2.66418 1.88886 2.53991 2.04215 2.53991C2.30769 2.53991 2.32026 2.5426 2.33239 2.60248C2.33937 2.6369 2.35316 2.70259 2.363 2.74847C2.38789 2.86427 2.59949 3.06065 2.72471 3.08415C2.96612 3.12945 3.18391 3.03404 3.29954 2.83237C3.36036 2.72628 3.36403 2.68899 3.3724 2.09091C3.37793 1.69439 3.36993 1.41936 3.35079 1.34831C3.26979 1.04745 2.93291 0.878536 2.65446 0.999142ZM11.4281 6.86401C11.9828 7.1171 12.1121 7.83256 11.6829 8.2748C11.2802 8.68979 10.5692 8.58567 10.2889 8.07065C10.1852 7.88022 10.1612 7.59268 10.2313 7.38164C10.3948 6.88932 10.9537 6.6476 11.4281 6.86401Z" fill="#0BB6A6"/>
</svg>
