<svg width="17" height="14" viewBox="0 0 17 14" fill="none" xmlns="http://www.w3.org/2000/svg">
<path d="M16.2108 1.54835C15.608 1.81093 14.9656 1.98498 14.2959 2.06949C14.9849 1.66103 15.5107 1.01915 15.758 0.245482C15.1156 0.625778 14.4064 0.8944 13.6505 1.0443C13.0406 0.399411 12.1713 0 11.223 0C9.38304 0 7.90177 1.48295 7.90177 3.30093C7.90177 3.56251 7.92406 3.81403 7.97877 4.05347C5.21584 3.91966 2.77104 2.60472 1.12868 0.601632C0.84195 1.09561 0.673763 1.66103 0.673763 2.2697C0.673763 3.4126 1.26647 4.42572 2.14996 5.01226C1.61602 5.0022 1.09221 4.84827 0.648434 4.60581C0.648434 4.61587 0.648434 4.62894 0.648434 4.64202C0.648434 6.24571 1.80042 7.57775 3.31106 7.8846C3.04055 7.95804 2.74571 7.99326 2.43973 7.99326C2.22696 7.99326 2.01217 7.98118 1.81055 7.93692C2.24115 9.2438 3.46304 10.2046 4.91594 10.2358C3.78523 11.1141 2.34956 11.6433 0.795344 11.6433C0.5228 11.6433 0.2614 11.6312 0 11.598C1.47215 12.5407 3.21684 13.079 5.09831 13.079C11.2138 13.079 14.5573 8.04859 14.5573 3.68827C14.5573 3.54239 14.5523 3.40154 14.5452 3.26169C15.2048 2.79689 15.759 2.21638 16.2108 1.54835Z" fill="#A29EB5"/>
</svg>
